<?xml version="1.0" encoding="UTF-8"?>
<svg width="44px" height="32px" viewBox="0 0 44 32" version="1.1" xmlns="http://www.w3.org/2000/svg" xmlns:xlink="http://www.w3.org/1999/xlink">
    <!-- Generator: Sketch 52.3 (67297) - http://www.bohemiancoding.com/sketch -->
    <title>cloudy</title>
    <desc>Created with Sketch.</desc>
    <g id="Page-1" stroke="none" stroke-width="1" fill="none" fill-rule="evenodd">
        <g id="Desktop-HD" transform="translate(-1007.000000, -630.000000)" fill="#000000" fill-rule="nonzero">
            <g id="Group-Copy-2" transform="translate(1007.000000, 630.000000)">
                <g id="cloudy">
                    <path d="M36.96,14.8556928 C36.96,12.7166611 36.1307692,10.7421703 34.7487179,9.34357262 C33.4061538,7.94497496 31.5107692,7.04 29.4574359,7.04 C28.0753846,7.04 26.7328205,7.45135225 25.5876923,8.15065109 C24.7584615,8.68540902 24.0082051,9.38470785 23.4158974,10.2074124 C23.2579487,10.0840067 23.0605128,9.91946578 22.9025641,9.7960601 C21.1651282,8.52086811 19.0723077,7.82156928 16.8610256,7.82156928 C14.2548718,7.82156928 11.8066667,8.80881469 9.95076923,10.4953589 C8.29230769,11.976227 7.06820513,14.0329883 6.51538462,16.3776962 C4.8174359,16.5833723 3.31692308,17.3649416 2.17179487,18.5578631 C0.829230769,19.9564608 0,21.8486811 0,23.9877129 C0,26.0856093 0.829230769,28.0189649 2.17179487,29.4175626 C3.51435897,30.8161603 5.33076923,31.68 7.38410256,31.68 L27.2461538,31.68 C29.6153846,31.6388648 31.7082051,30.6927546 33.2087179,29.0884808 C34.7092308,27.5253422 35.6569231,25.3451753 35.6569231,22.918197 C35.6569231,21.8898164 35.4989744,20.8614357 35.1435897,19.9564608 C35.6569231,19.3394324 36.0912821,18.6401336 36.3676923,17.8996995 C36.7625641,16.9535893 36.96,15.8840735 36.96,14.8556928 Z M31.6687179,27.7721536 C30.5235897,28.9650751 28.9441026,29.7055092 27.1671795,29.7055092 L7.46307692,29.7055092 C5.9625641,29.5409683 4.65948718,28.9239399 3.67230769,27.8955593 C2.72461538,26.9083139 2.09282051,25.5097162 2.09282051,23.9877129 C2.09282051,22.4657095 2.68512821,21.0671119 3.67230769,20.0798664 C4.62,19.092621 5.9625641,18.4344574 7.42358974,18.4344574 C7.58153846,18.4344574 7.77897436,18.3933222 7.8974359,18.3110518 C8.13435897,18.1465109 8.29230769,17.8996995 8.33179487,17.6117529 C8.64769231,15.431586 9.71384615,13.5393656 11.214359,12.1819032 C12.7148718,10.8244407 14.6892308,10.0428715 16.8215385,10.0428715 C18.5984615,10.0428715 20.2964103,10.6187646 21.7179487,11.6471452 C22.8235897,12.4287145 23.7712821,13.5393656 24.4030769,14.8145576 C24.1661538,14.896828 23.9687179,14.9790985 23.7712821,15.1025042 C22.7051282,15.5961269 21.7179487,16.3365609 20.9282051,17.2826711 C20.5728205,17.7351586 20.6123077,18.3933222 21.0071795,18.7635392 C21.4415385,19.1337563 22.0733333,19.092621 22.4287179,18.6812688 C23.0210256,17.9819699 23.7712821,17.4060768 24.5610256,17.0358598 C25.3507692,16.6656427 26.2589744,16.4599666 27.1671795,16.4599666 C28.9046154,16.4599666 30.5235897,17.2004007 31.6687179,18.3933222 C32.8138462,19.5862437 33.5246154,21.2316528 33.5246154,23.0827379 C33.5246154,24.933823 32.8138462,26.5792321 31.6687179,27.7721536 Z M34.5512821,17.0358598 C34.4328205,17.3238063 34.314359,17.5706177 34.1564103,17.8585643 C33.88,17.447212 33.5641026,17.076995 33.2482051,16.7479132 C31.7476923,15.1847746 29.6548718,14.1975292 27.3251282,14.1975292 C27.0882051,14.1975292 26.8117949,14.1975292 26.5748718,14.2386644 C26.18,13.2925543 25.6271795,12.4698497 24.9953846,11.6882805 C25.4297436,10.9889816 26.0220513,10.4130885 26.6933333,9.960601 C27.5225641,9.42584307 28.5097436,9.13789649 29.5364103,9.13789649 C31.0369231,9.13789649 32.4189744,9.75492487 33.4061538,10.7833055 C34.3933333,11.8116861 34.985641,13.251419 34.985641,14.8145576 C34.985641,15.5961269 34.8276923,16.3365609 34.5512821,17.0358598 Z" id="Shape"></path>
                    <path d="M38.4709434,4.71132075 C38.1388679,4.29622642 37.6075472,4.29622642 37.2754717,4.71132075 L35.4490566,6.99433962 C35.1169811,7.40943396 35.1169811,8.07358491 35.4490566,8.48867925 C35.7811321,8.90377358 36.3124528,8.90377358 36.6445283,8.48867925 L38.4709434,6.20566038 C38.8030189,5.79056604 38.8030189,5.12641509 38.4709434,4.71132075 Z" id="Shape"></path>
                    <path d="M29.04,0 C28.5661538,0 28.16,0.450232558 28.16,1.02325581 L28.16,4.21581395 C28.16,4.78883721 28.5661538,5.28 29.04,5.28 C29.5138462,5.28 29.92,4.78883721 29.92,4.21581395 L29.92,1.06418605 C29.92,0.491162791 29.5138462,0 29.04,0 Z" id="Shape"></path>
                    <path d="M21.7509434,6.99433962 L19.9245283,4.71132075 C19.6256604,4.29622642 19.0611321,4.29622642 18.7290566,4.71132075 C18.3969811,5.12641509 18.3969811,5.79056604 18.7290566,6.20566038 L20.5554717,8.48867925 C20.8875472,8.90377358 21.4188679,8.90377358 21.7509434,8.48867925 C22.0830189,8.07358491 22.0830189,7.40943396 21.7509434,6.99433962 Z" id="Shape"></path>
                    <path d="M42.935814,14.08 L39.784186,14.08 C39.2111628,14.08 38.72,14.4861538 38.72,14.96 C38.72,15.4338462 39.2111628,15.84 39.784186,15.84 L42.935814,15.84 C43.5088372,15.84 44,15.4338462 44,14.96 C44,14.4523077 43.5088372,14.08 42.935814,14.08 Z" id="Shape"></path>
                    <path d="M38.4709434,24.0754717 L36.6445283,22.2490566 C36.3124528,21.9169811 35.7811321,21.9169811 35.4490566,22.2490566 C35.1169811,22.5811321 35.1169811,23.1124528 35.4490566,23.4445283 L37.2754717,25.2709434 C37.6075472,25.6030189 38.1388679,25.6030189 38.4709434,25.2709434 C38.8030189,24.9388679 38.8030189,24.4075472 38.4709434,24.0754717 Z" id="Shape"></path>
                </g>
            </g>
        </g>
    </g>
</svg>