<?xml version="1.0" encoding="UTF-8"?>
<svg width="39px" height="39px" viewBox="0 0 39 39" version="1.1" xmlns="http://www.w3.org/2000/svg" xmlns:xlink="http://www.w3.org/1999/xlink">
    <!-- Generator: Sketch 52.3 (67297) - http://www.bohemiancoding.com/sketch -->
    <title>sun</title>
    <desc>Created with Sketch.</desc>
    <g id="Page-1" stroke="none" stroke-width="1" fill="none" fill-rule="evenodd">
        <g id="Desktop-HD" transform="translate(-1007.000000, -569.000000)" fill="#000000" fill-rule="nonzero">
            <g id="sun" transform="translate(1007.000000, 569.000000)">
                <path d="M26.360396,12.5623762 C24.609901,10.8118812 22.1386139,9.67920792 19.4613861,9.67920792 C16.7841584,9.67920792 14.3128713,10.760396 12.5623762,12.5623762 C10.8118812,14.3128713 9.67920792,16.7841584 9.67920792,19.4613861 C9.67920792,22.1386139 10.8118812,24.609901 12.5623762,26.360396 C14.3128713,28.1108911 16.7841584,29.2435644 19.4613861,29.2435644 C22.1386139,29.2435644 24.609901,28.1623762 26.360396,26.360396 C28.1108911,24.609901 29.2435644,22.1386139 29.2435644,19.4613861 C29.2435644,16.7841584 28.1623762,14.3128713 26.360396,12.5623762 Z M24.5069307,24.5069307 C23.219802,25.7940594 21.4178218,26.5663366 19.4613861,26.5663366 C17.5049505,26.5663366 15.7029703,25.7940594 14.4158416,24.5069307 C13.1287129,23.219802 12.3564356,21.4178218 12.3564356,19.4613861 C12.3564356,17.5049505 13.1287129,15.7029703 14.4158416,14.4158416 C15.7029703,13.1287129 17.5049505,12.3564356 19.4613861,12.3564356 C21.4178218,12.3564356 23.219802,13.1287129 24.5069307,14.4158416 C25.7940594,15.7029703 26.5663366,17.5049505 26.5663366,19.4613861 C26.5663366,21.4178218 25.7940594,23.219802 24.5069307,24.5069307 Z" id="Shape"></path>
                <path d="M37.5841584,18.1227723 L33.619802,18.1227723 C32.8990099,18.1227723 32.2811881,18.7405941 32.2811881,19.4613861 C32.2811881,20.1821782 32.8990099,20.8 33.619802,20.8 L37.5841584,20.8 C38.3049505,20.8 38.9227723,20.1821782 38.9227723,19.4613861 C38.9227723,18.7405941 38.3049505,18.1227723 37.5841584,18.1227723 Z" id="Shape"></path>
                <path d="M19.4613861,32.2811881 C18.7405941,32.2811881 18.1227723,32.8990099 18.1227723,33.619802 L18.1227723,37.5841584 C18.1227723,38.3049505 18.7405941,38.9227723 19.4613861,38.9227723 C20.1821782,38.9227723 20.8,38.3049505 20.8,37.5841584 L20.8,33.619802 C20.8,32.8990099 20.1821782,32.2811881 19.4613861,32.2811881 Z" id="Shape"></path>
                <path d="M33.2079208,31.3544554 L30.3762376,28.5227723 C29.9128713,28.0079208 29.0376238,28.0079208 28.5227723,28.5227723 C28.0079208,29.0376238 28.0079208,29.8613861 28.5227723,30.3762376 L31.3544554,33.2079208 C31.8693069,33.7227723 32.6930693,33.7227723 33.2079208,33.2079208 C33.7227723,32.6930693 33.7227723,31.8693069 33.2079208,31.3544554 Z" id="Shape"></path>
                <path d="M19.4613861,0 C18.7405941,0 18.1227723,0.617821782 18.1227723,1.33861386 L18.1227723,5.3029703 C18.1227723,6.02376238 18.7405941,6.64158416 19.4613861,6.64158416 C20.1821782,6.64158416 20.8,6.02376238 20.8,5.3029703 L20.8,1.33861386 C20.8,0.617821782 20.1821782,0 19.4613861,0 Z" id="Shape"></path>
                <path d="M33.2594059,5.71485149 C32.7445545,5.2 31.9207921,5.2 31.4059406,5.71485149 L28.5742574,8.54653465 C28.0594059,9.06138614 28.0594059,9.88514851 28.5742574,10.4 C29.0376238,10.9148515 29.9128713,10.9148515 30.4277228,10.4 L33.2594059,7.56831683 C33.7742574,7.05346535 33.7742574,6.22970297 33.2594059,5.71485149 Z" id="Shape"></path>
                <path d="M5.3029703,18.1227723 L1.33861386,18.1227723 C0.617821782,18.1227723 0,18.7405941 0,19.4613861 C0,20.1821782 0.566336634,20.8 1.33861386,20.8 L5.3029703,20.8 C6.02376238,20.8 6.64158416,20.1821782 6.64158416,19.4613861 C6.64158416,18.7405941 6.02376238,18.1227723 5.3029703,18.1227723 Z" id="Shape"></path>
                <path d="M10.3485149,28.5227723 C9.88514851,28.0079208 9.00990099,28.0079208 8.4950495,28.5227723 L5.66336634,31.3544554 C5.14851485,31.8693069 5.14851485,32.6930693 5.66336634,33.2079208 C6.17821782,33.7227723 7.0019802,33.7227723 7.51683168,33.2079208 L10.3485149,30.3762376 C10.8633663,29.8613861 10.8633663,29.0376238 10.3485149,28.5227723 Z" id="Shape"></path>
                <path d="M10.3485149,8.54653465 L7.51683168,5.71485149 C7.0019802,5.2 6.17821782,5.2 5.66336634,5.71485149 C5.14851485,6.22970297 5.14851485,7.05346535 5.66336634,7.56831683 L8.4950495,10.4 C9.00990099,10.9148515 9.83366337,10.9148515 10.3485149,10.4 C10.8633663,9.88514851 10.8633663,9.06138614 10.3485149,8.54653465 Z" id="Shape"></path>
            </g>
        </g>
    </g>
</svg>