<?xml version="1.0" encoding="UTF-8"?>
<svg width="30px" height="32px" viewBox="0 0 30 32" version="1.1" xmlns="http://www.w3.org/2000/svg" xmlns:xlink="http://www.w3.org/1999/xlink">
    <!-- Generator: Sketch 52.3 (67297) - http://www.bohemiancoding.com/sketch -->
    <title>phone-call</title>
    <desc>Created with Sketch.</desc>
    <g id="Page-1" stroke="none" stroke-width="1" fill="none" fill-rule="evenodd">
        <g id="Desktop-HD" transform="translate(-223.000000, -3060.000000)" fill="#A0C313">
            <g id="Group-33" transform="translate(222.000000, 2777.000000)">
                <g id="Group-39">
                    <g id="Group-19" transform="translate(0.000000, 198.000000)">
                        <g id="phone-call" transform="translate(16.000000, 101.000000) rotate(91.000000) translate(-16.000000, -101.000000) translate(1.000000, 86.000000)">
                            <path d="M25.3694433,0 L26.2114712,0.774632207 C26.5691451,1.10367793 29.7131809,4.06687873 29.9604573,6.74988072 C30.1661034,8.98151093 28.887495,11.7079324 27.7786282,13.602167 C26.2578131,16.2002386 24.0914314,18.9359642 21.5137575,21.5136382 L15.3190855,15.3189662 L19.7460239,10.8920875 L17.1116899,8.25775348 L25.3694433,0 Z" id="Path"></path>
                            <path d="M10.8922068,19.7458449 L15.3190855,15.3190258 L21.5137575,21.5136978 C16.3693837,26.6580119 10.7688072,29.9822266 7.24562624,29.9825845 C7.07654076,29.9825845 6.91001988,29.9751292 6.75,29.9603976 C4.06699801,29.713002 1.10379722,26.5690258 0.774691849,26.2114115 L0.000119284294,25.3692644 L8.25793241,17.1114513 L10.8922068,19.7458449 Z" id="Path"></path>
                        </g>
                    </g>
                </g>
            </g>
        </g>
    </g>
</svg>