<?xml version="1.0" encoding="UTF-8"?>
<svg width="30px" height="40px" viewBox="0 0 30 40" version="1.1" xmlns="http://www.w3.org/2000/svg" xmlns:xlink="http://www.w3.org/1999/xlink">
    <!-- Generator: Sketch 52.3 (67297) - http://www.bohemiancoding.com/sketch -->
    <title>placeholder (1)</title>
    <desc>Created with Sketch.</desc>
    <g id="Page-1" stroke="none" stroke-width="1" fill="none" fill-rule="evenodd">
        <g id="Desktop-HD" transform="translate(-224.000000, -2980.000000)">
            <g id="Group-33" transform="translate(222.000000, 2777.000000)">
                <g id="Group-39">
                    <g id="Group-19" transform="translate(0.000000, 198.000000)">
                        <g id="Group-31" transform="translate(2.000000, 0.900000)">
                            <g id="placeholder-(1)" transform="translate(0.000000, 5.000000)">
                                <path d="M15.0120321,0 L15.0120321,8.37433155 C18.5502674,8.37433155 21.4291444,11.2524064 21.4291444,14.7914439 C21.4291444,18.3296791 18.5502674,21.2085561 15.0120321,21.2085561 L15.0120321,39.0080214 L26.757754,24.2406417 C28.8665775,21.5735294 29.9815508,18.3681818 29.9815508,14.9695187 C29.9815508,6.71550802 23.2660428,0 15.0120321,0 Z" id="Path" fill="#A0C313"></path>
                                <path d="M21.4291444,14.7914439 C21.4291444,11.2524064 18.5502674,8.37433155 15.0120321,8.37433155 L15.0120321,21.2085561 C18.5502674,21.2085561 21.4291444,18.3296791 21.4291444,14.7914439 Z" id="Path" fill="#3C3C43"></path>
                                <path d="M8.59491979,14.7914439 C8.59491979,11.2524064 11.4737968,8.37433155 15.0120321,8.37433155 L15.0120321,0 C6.75802139,0 0.042513369,6.71550802 0.042513369,14.9695187 C0.042513369,18.3681818 1.15748663,21.5735294 3.26951872,24.2438503 L15.0120321,39.0080214 L15.0120321,21.2085561 C11.4737968,21.2085561 8.59491979,18.3296791 8.59491979,14.7914439 Z" id="Path" fill="#A0C313"></path>
                                <path d="M8.59491979,14.7914439 C8.59491979,18.3296791 11.4737968,21.2085561 15.0120321,21.2085561 L15.0120321,8.37433155 C11.4737968,8.37433155 8.59491979,11.2524064 8.59491979,14.7914439 Z" id="Path" fill="#3C3C43"></path>
                            </g>
                        </g>
                    </g>
                </g>
            </g>
        </g>
    </g>
</svg>