<?xml version="1.0" encoding="UTF-8"?>
<svg width="21px" height="21px" viewBox="0 0 21 21" version="1.1" xmlns="http://www.w3.org/2000/svg" xmlns:xlink="http://www.w3.org/1999/xlink">
    <!-- Generator: Sketch 52.3 (67297) - http://www.bohemiancoding.com/sketch -->
    <title>Shape</title>
    <desc>Created with Sketch.</desc>
    <g id="Page-1" stroke="none" stroke-width="1" fill="none" fill-rule="evenodd" opacity="0.842238653">
        <g id="Desktop-HD" transform="translate(-1169.000000, -129.000000)" fill="#B3B7BB" fill-rule="nonzero">
            <g id="Group-32" transform="translate(140.000000, 107.000000)">
                <g id="Group-20">
                    <g id="Group-35" transform="translate(454.000000, 0.000000)">
                        <g id="Group-15">
                            <g id="Group-17" transform="translate(514.000000, 0.000000)">
                                <g id="Line-Group-Copy" transform="translate(47.000000, 1.000000)">
                                    <path d="M24.5023425,26.1158652 C21.5227552,26.1158652 19.1194088,28.5197479 19.1194088,31.5 C19.1194088,34.4802521 21.5227552,36.8841348 24.5023425,36.8841348 C27.4819298,36.8841348 29.885276,34.4802521 29.885276,31.5 C29.885276,28.5197479 27.4819298,26.1158652 24.5023425,26.1158652 Z M24.5023424,35.0003905 C22.5768544,35.0003905 21.0027328,33.4306036 21.0027328,31.5 C21.0027328,29.5693964 22.5721695,27.9996095 24.5023424,27.9996095 C26.4325153,27.9996095 28.001952,29.5693964 28.001952,31.5 C28.001952,33.4306036 26.4278304,35.0003905 24.5023424,35.0003905 Z M31.3610151,25.8956265 C31.3610151,26.5938302 30.7988288,27.151456 30.1054657,27.151456 C29.4074178,27.151456 28.8499163,26.5891443 28.8499163,25.8956265 C28.8499163,25.2021087 29.4121026,24.6397969 30.1054657,24.6397969 C30.7988288,24.6397969 31.3610151,25.2021087 31.3610151,25.8956265 Z M34.926213,27.1701997 C34.84657,25.4879505 34.4624093,23.9978244 33.2302844,22.7701104 C32.0028444,21.5423965 30.5130507,21.1581502 28.8311768,21.0738034 C27.0977691,20.9753989 21.9022309,20.9753989 20.1688232,21.0738034 C18.4916341,21.1534642 17.0018405,21.5377106 15.7697156,22.7654245 C14.5375906,23.9931385 14.1581149,25.4832645 14.0737869,27.1655138 C13.9754044,28.8993083 13.9754044,34.0960057 14.0737869,35.8298003 C14.15343,37.5120495 14.5375906,39.0021756 15.7697156,40.2298896 C17.0018405,41.4576035 18.4869492,41.8418498 20.1688232,41.9261965 C21.9022309,42.0246012 27.0977691,42.0246012 28.8311768,41.9261965 C30.5130507,41.8465358 32.0028444,41.4622894 33.2302844,40.2298896 C34.4577245,39.0021756 34.8418851,37.5120495 34.926213,35.8298003 C35.0245956,34.0960057 35.0245956,28.9039942 34.926213,27.1701997 Z M32.6868377,37.690115 C32.3214166,38.6085574 31.6139988,39.316133 30.6910764,39.6863215 C29.3090351,40.2345755 26.0296151,40.1080553 24.5023424,40.1080553 C22.9750697,40.1080553 19.6909649,40.2298896 18.3136085,39.6863215 C17.3953709,39.3208189 16.6879531,38.6132433 16.3178472,37.690115 C15.7697156,36.3077652 15.8962075,33.0276135 15.8962075,31.5 C15.8962075,29.9723865 15.7744004,26.6875488 16.3178472,25.3098851 C16.6832683,24.3914426 17.390686,23.683867 18.3136085,23.3136784 C19.6956498,22.7654245 22.9750697,22.8919447 24.5023424,22.8919447 C26.0296151,22.8919447 29.31372,22.7701104 30.6910764,23.3136784 C31.609314,23.6791811 32.3167317,24.3867567 32.6868377,25.3098851 C33.2349693,26.6922347 33.1084774,29.9723865 33.1084774,31.5 C33.1084774,33.0276135 33.2349693,36.3124512 32.6868377,37.690115 Z" id="Shape"></path>
                                </g>
                            </g>
                        </g>
                    </g>
                </g>
            </g>
        </g>
    </g>
</svg>