<?xml version="1.0" encoding="UTF-8"?>
<svg width="38px" height="36px" viewBox="0 0 38 36" version="1.1" xmlns="http://www.w3.org/2000/svg" xmlns:xlink="http://www.w3.org/1999/xlink">
    <!-- Generator: Sketch 52.3 (67297) - http://www.bohemiancoding.com/sketch -->
    <title>moon</title>
    <desc>Created with Sketch.</desc>
    <g id="Page-1" stroke="none" stroke-width="1" fill="none" fill-rule="evenodd">
        <g id="Desktop-HD" transform="translate(-1013.000000, -750.000000)" fill="#000000" fill-rule="nonzero">
            <g id="moon" transform="translate(1013.000000, 750.000000)">
                <path d="M22.1373741,11.2046427 C21.9574175,11.0637987 21.7299895,10.99439 21.5002862,11.0100956 L18.025261,11.0100956 L21.2934394,7.43529304 L21.5995726,7.10294178 L21.7567761,6.9083947 C21.8113837,6.83321036 21.8558557,6.7514398 21.889158,6.66521086 C21.9267007,6.57229436 21.9462477,6.47329827 21.9470751,6.37339024 C21.9701385,6.13699527 21.8505811,5.90901042 21.6409419,5.789749 C21.3690419,5.66754912 21.0708723,5.61181949 20.7721857,5.62762644 L16.7097158,5.62762644 C16.4929404,5.61313673 16.2782335,5.67656719 16.1057233,5.80596126 C15.9632059,5.92481737 15.8838802,6.100923 15.8906027,6.28422283 C15.8906027,6.55983119 15.9844077,6.72732406 16.1719142,6.78680278 C16.440815,6.86168314 16.7199547,6.89451296 16.9993012,6.88407632 L19.6469394,6.88407632 C19.5365867,7.03535694 19.3932419,7.21369176 19.2166982,7.41908079 L18.5382409,8.16484459 L17.6198414,9.13757998 L16.5525122,10.2967563 C16.1829805,10.7020627 15.9402459,10.9723008 15.8244117,11.1073691 C15.5617164,11.4199617 15.5943982,11.8792752 15.8988765,12.1530597 C16.1170999,12.314169 16.3876554,12.3918865 16.6600725,12.3719252 L21.4920123,12.3719252 C21.7231635,12.3896573 21.9529702,12.3232884 22.1373741,12.1854842 C22.2779265,12.0652095 22.3567351,11.8900158 22.3524947,11.7072226 C22.3596309,11.51683 22.2809257,11.3330235 22.1373741,11.2046427 Z" id="Shape"></path>
                <path d="M29.9934111,15.9130485 C29.8410537,15.7952658 29.6481039,15.7381622 29.4536306,15.7532005 L26.5283686,15.7532005 L29.2708017,12.7918065 L29.5319858,12.5141758 L29.6974024,12.3206757 C29.7440891,12.2584191 29.7820696,12.1905888 29.8105822,12.1187624 C29.8435567,12.0412572 29.8612955,11.958599 29.862819,11.8747839 C29.8846932,11.6784444 29.7859874,11.4877836 29.6103411,11.386827 C29.3814785,11.2852394 29.1305241,11.2389676 28.8790256,11.2522182 L25.4313954,11.2522182 C25.2497636,11.242438 25.0704172,11.2961764 24.9264394,11.4036531 C24.8060771,11.5014548 24.7387134,11.6472109 24.7436106,11.7990665 C24.7436106,12.0233795 24.8219658,12.1636671 24.9786763,12.219719 C25.2052535,12.2803982 25.4403192,12.3059528 25.6751672,12.2954365 L27.9039382,12.2954365 C27.8168769,12.4216323 27.694991,12.5646541 27.5382805,12.7413282 L26.9636755,13.363894 L26.2149477,14.2051991 L25.344334,15.1642869 C25.0309131,15.500809 24.8249041,15.7308007 24.7261983,15.8541571 C24.5210599,16.1084416 24.547396,16.4712544 24.7871413,16.6954622 C24.9698613,16.826811 25.1956767,16.8895934 25.4226892,16.8721363 L29.4623367,16.8721363 C29.6553953,16.8870695 29.8473656,16.8332259 30.0021172,16.7207014 C30.1172559,16.6198499 30.1808107,16.4753558 30.17624,16.325288 C30.1802666,16.1687001 30.1135558,16.0182116 29.9934111,15.9130485 Z" id="Shape"></path>
                <path d="M37.7846986,11.2282679 C37.6049637,11.087847 37.377816,11.0186467 37.1483957,11.0343051 L33.6528618,11.0343051 L36.9170129,7.47023864 L37.2227688,7.13888552 L37.4210969,6.9045138 C37.4756372,6.82955526 37.5200544,6.74803027 37.5533157,6.6620603 C37.5908121,6.56942285 37.6103351,6.47072407 37.6111614,6.37111609 C37.6341964,6.13543108 37.5147863,5.90813092 37.3054055,5.78922769 C37.0338405,5.6673948 36.7360384,5.61193356 36.4377198,5.62759202 L32.3389377,5.62759202 C32.1224295,5.61314583 31.9079871,5.67638578 31.7356895,5.80539125 C31.5933478,5.9238904 31.5141198,6.09946715 31.520834,6.28221648 C31.520834,6.55699711 31.6145234,6.72398696 31.8017989,6.78328705 C32.0703683,6.85794252 32.349164,6.89067375 32.6281663,6.88026845 L35.2725418,6.88026845 C35.1623251,7.03109473 35.0191569,7.20889397 34.8428308,7.41366616 L34.1569459,8.1733538 L33.2644692,9.14316781 L32.1984553,10.2988628 C31.8293789,10.702952 31.5869434,10.9723785 31.471252,11.1070412 C31.2088804,11.418695 31.2415219,11.876629 31.5456251,12.1495913 C31.7635794,12.3102167 32.0338016,12.3877008 32.305883,12.3677994 L37.1236047,12.3677994 C37.3568469,12.3964897 37.5926715,12.338806 37.7846986,12.2061637 C37.9250777,12.0862503 38.0037892,11.9115827 37.9995541,11.7293385 C38.0066815,11.5395176 37.9280733,11.3562632 37.7846986,11.2282679 Z" id="Shape"></path>
                <path d="M34.4336948,24.2901068 C34.2117047,24.0534652 33.8719497,23.9802358 33.5765149,24.1055284 C25.1305657,27.7062113 15.4494008,23.574063 11.9529836,14.875907 C10.1775498,10.4589663 10.2846973,5.47715565 12.248321,1.14558249 C12.4323225,0.744927025 12.2660491,0.266527943 11.8770063,0.0770341569 C11.6773223,-0.0202707518 11.4468578,-0.0255874117 11.2430828,0.0621876348 C1.98349459,3.97936225 -2.43945617,14.8853365 1.36418213,24.4213179 C5.16782043,33.9572993 15.7576934,38.5122725 25.017379,34.5950979 C29.2405484,32.8084995 32.653488,29.4464644 34.574058,25.1807978 C34.7091612,24.8824629 34.6535419,24.5292561 34.4336948,24.2901068 Z M18.1394846,34.4017921 C8.98548531,34.4001871 1.56600903,26.7566357 1.56756754,17.3293951 C1.5685416,11.1391979 4.82368219,5.43472268 10.0742012,2.42158089 C9.45245353,4.32213635 9.13656326,6.31457975 9.13909584,8.32006401 C9.13958287,18.6336821 17.2585374,26.9941801 27.2732232,26.9936785 C28.9516398,26.9935782 30.6218743,26.753526 32.2361973,26.2803432 C29.2141512,31.3126121 23.8848301,34.382933 18.1394846,34.4017921 Z" id="Shape"></path>
            </g>
        </g>
    </g>
</svg>