<?xml version="1.0" encoding="UTF-8"?>
<svg width="18px" height="26px" viewBox="0 0 18 26" version="1.1" xmlns="http://www.w3.org/2000/svg" xmlns:xlink="http://www.w3.org/1999/xlink">
    <!-- Generator: Sketch 52.3 (67297) - http://www.bohemiancoding.com/sketch -->
    <title>placeholder</title>
    <desc>Created with Sketch.</desc>
    <g id="Page-1" stroke="none" stroke-width="1" fill="none" fill-rule="evenodd" opacity="0.842238653">
        <g id="Desktop-HD" transform="translate(-791.000000, -130.000000)">
            <g id="Group-32" transform="translate(140.000000, 107.000000)">
                <g id="Group-20">
                    <g id="Group-35" transform="translate(454.000000, 0.000000)">
                        <g id="placeholder" transform="translate(197.000000, 23.000000)">
                            <path d="M8.66666667,0 L8.66666667,5.43861814 C10.8727182,5.43861814 12.6676669,7.30775242 12.6676669,9.60614161 C12.6676669,11.9040099 10.8727182,13.7736651 8.66666667,13.7736651 L8.66666667,25.3333333 L15.9899975,15.7428199 C17.3048262,14.010693 18,11.929015 18,9.72179039 C18,4.36131332 13.8129532,0 8.66666667,0 Z" id="Path" fill="#8E9396"></path>
                            <path d="M12.6666667,9.77214811 C12.6666667,7.44048779 11.17125,5.33333333 9.33333333,5.33333333 L9.33333333,14 C11.17125,14 12.6666667,12.1032799 12.6666667,9.77214811 Z" id="Path" fill="#37373F"></path>
                            <path d="M5.33233308,9.60614161 C5.33233308,7.30775242 7.12728182,5.43861814 9.33333333,5.43861814 L9.33333333,0 C4.18704676,0 0,4.36131332 0,9.72179039 C0,11.929015 0.695173793,14.010693 2.012003,15.7449037 L9.33333333,25.3333333 L9.33333333,13.7736651 C7.12728182,13.7736651 5.33233308,11.9040099 5.33233308,9.60614161 Z" id="Path" fill="#8E9396"></path>
                            <path d="M5.33333333,9.7883412 C5.33333333,12.1105446 7.12783333,14 9.33333333,14 L9.33333333,5.33333333 C7.01659769,5.33333333 5.33333333,7.46561137 5.33333333,9.7883412 Z" id="Path" fill="#37373F"></path>
                        </g>
                    </g>
                </g>
            </g>
        </g>
    </g>
</svg>