<?xml version="1.0" encoding="UTF-8"?>
<svg width="94px" height="68px" viewBox="0 0 94 68" version="1.1" xmlns="http://www.w3.org/2000/svg" xmlns:xlink="http://www.w3.org/1999/xlink">
    <!-- Generator: Sketch 52.3 (67297) - http://www.bohemiancoding.com/sketch -->
    <title>XMLID_477_</title>
    <desc>Created with Sketch.</desc>
    <g id="Page-1" stroke="none" stroke-width="1" fill="none" fill-rule="evenodd">
        <g id="Desktop-HD" transform="translate(-985.000000, -290.000000)" fill="#020400" fill-rule="nonzero">
            <g id="Timetable-menu" transform="translate(968.000000, 268.000000)">
                <g id="mosque" transform="translate(64.000000, 56.000000) rotate(90.000000) translate(-64.000000, -56.000000) translate(30.000000, 9.000000)">
                    <path d="M33.9602552,0 C34.5108567,3.62232058 35.1153215,7.22596276 35.5808059,10.8463511 C35.7590199,12.2304846 35.8787159,13.5302433 37.0284625,14.5575551 C37.9208626,15.3549293 38.3464483,16.5696691 37.8756441,17.5576918 C37.0517367,19.2870536 37.9654161,20.1256492 39.0067712,21.3236428 C41.2976195,23.9579407 40.9830851,27.2401857 38.3584179,29.7469552 C37.6256125,30.4464289 37.0809957,30.915321 37.8031615,31.8917502 C37.9847004,32.1371457 38.0372337,32.5944444 37.9408119,32.8907224 C37.0949602,35.4934602 39.0593045,36.2650711 40.8460997,37.1816007 C45.3327045,39.4816197 49.7893853,41.815775 53.7313733,44.9756443 C59.148282,49.3174052 62.9100611,54.7070884 65.0772235,61.1788304 C67.4897628,68.3841826 67.8887494,75.7428263 67.2257666,83.241236 C66.9611055,86.2368642 66.4929611,89.2047969 66.2422645,92.1972047 C66.1425179,93.3913338 65.6703837,94.0025682 64.2593009,93.9999919 C43.8877078,93.9639233 23.5161148,93.9722963 3.1445217,93.9858221 C2.21687775,93.9864662 1.69886009,93.9246342 1.44350864,92.7762349 C0.0942688075,86.7167058 -0.0839452269,80.5953447 0.0277710334,74.4372709 C0.154781782,67.4309403 1.83451555,60.8342462 5.286415,54.6600704 C8.07533164,49.6722947 12.1396756,45.8522407 16.8656724,42.6221665 C20.5543039,40.1012271 24.6944553,38.3254914 28.5200723,36.0286928 C29.3419848,35.5353256 30.2117756,35.1894532 29.4184572,34.0462066 C29.3140557,33.8954912 29.2668423,33.5979251 29.3492995,33.4504302 C30.6825799,31.0814943 28.8026878,29.6748179 27.7407184,27.9338626 C26.2790973,25.5372313 26.9241257,22.229223 29.125202,20.4644366 C29.9697237,19.7875058 30.320832,19.3482415 29.6671589,18.3640833 C28.9343534,17.2614138 29.1205472,15.9236543 30.0036376,15.1378735 C31.8954993,13.4542416 31.7279249,11.1909353 32.1202618,9.12343012 C32.6409393,6.38092638 32.8410976,3.58109929 33.1695966,0.804459175 C33.2148151,0.434111677 33.3245364,0.142986339 33.9602552,0 Z M40.8859983,59.8790717 C39.1710207,59.9879217 37.4194694,60.9134684 35.7729845,59.6639481 L35.7683296,59.7869679 L35.8408122,59.686491 C36.1054733,61.4081238 36.0017368,63.1355534 35.9332441,64.8604066 C35.8255177,64.8816613 35.6625982,65.1450911 35.637329,64.7979306 C35.727101,64.8314229 35.816208,64.8649152 35.90598,64.8984075 C37.3722559,63.6669215 39.0479998,64.6150111 40.7084493,64.6304691 C40.0847001,62.8817849 39.9450548,61.3147319 40.9185822,59.8249688 L40.8334651,59.7856798 L40.8859983,59.8790717 Z M27.0484765,51.1414471 C19.298161,55.1965912 15.9952165,62.6660172 18.3804917,70.5656903 C20.3840696,77.2023175 27.1262789,82.734343 36.2703878,82.0683616 C41.3873915,81.6954378 48.5997401,77.0200421 49.1436919,73.0061193 C42.1667454,75.560551 35.8521168,74.3747949 30.6646255,69.3284077 C25.4777991,64.2820204 24.4929671,58.1207262 27.0484765,51.1414471 Z" id="XMLID_477_"></path>
                </g>
            </g>
        </g>
    </g>
</svg>