<?xml version="1.0" encoding="UTF-8"?>
<svg width="57px" height="65px" viewBox="0 0 57 65" version="1.1" xmlns="http://www.w3.org/2000/svg" xmlns:xlink="http://www.w3.org/1999/xlink">
    <!-- Generator: Sketch 52.3 (67297) - http://www.bohemiancoding.com/sketch -->
    <title>quran copy</title>
    <desc>Created with Sketch.</desc>
    <g id="Page-1" stroke="none" stroke-width="1" fill="none" fill-rule="evenodd">
        <g id="Desktop-HD" transform="translate(-995.000000, -965.000000)" fill="#000000" fill-rule="nonzero">
            <g id="Group-7" transform="translate(977.000000, 942.000000)">
                <g id="quran-copy" transform="translate(45.917592, 56.223931) rotate(-25.000000) translate(-45.917592, -56.223931) translate(26.417592, 28.723931)">
                    <path d="M3.97959184,0 C1.7852449,0 0,1.97437975 0,4.40120319 L0,49.2934758 C0,52.2061921 2.14181633,54.5749196 4.7755102,54.5749196 L39,54.5749196 L39,52.8144383 C37.2442041,52.8144383 35.8163265,51.2352866 35.8163265,49.2934758 C35.8163265,47.3516649 37.2442041,45.7725132 39,45.7725132 L39,44.8922726 L39,44.0120319 L39,0 L3.97959184,0 Z M35.4430408,52.8144383 L4.7755102,52.8144383 C3.01971429,52.8144383 1.59183673,51.2352866 1.59183673,49.2934758 C1.59183673,47.3516649 3.01971429,45.7725132 4.7755102,45.7725132 L35.4430408,45.7725132 C34.6861224,46.7073288 34.2244898,47.9423064 34.2244898,49.2934758 C34.2244898,50.6446452 34.6861224,51.8796228 35.4430408,52.8144383 Z M37.4081633,44.0120319 L4.7755102,44.0120319 C3.55138776,44.0120319 2.43789796,44.527853 1.59183673,45.3684828 L1.59183673,4.40120319 C1.59183673,2.94528518 2.66314286,1.76048128 3.97959184,1.76048128 L37.4081633,1.76048128 L37.4081633,44.0120319 Z" id="Shape"></path>
                    <path d="M31.2,6.82186495 L7.8,6.82186495 L7.8,38.3729904 L31.2,38.3729904 L31.2,6.82186495 Z M9.36,8.57470525 L11.37708,8.57470525 L9.36,10.8411278 L9.36,8.57470525 Z M9.36,36.6201501 L9.36,34.3537275 L11.37708,36.6201501 L9.36,36.6201501 Z M29.64,36.6201501 L27.62292,36.6201501 L29.64,34.3537275 L29.64,36.6201501 Z M29.64,31.8752114 L25.41708,36.6201501 L13.58292,36.6201501 L9.36,31.8752114 L9.36,13.3196439 L13.58292,8.57470525 L25.41708,8.57470525 L29.64,13.3196439 L29.64,31.8752114 Z M29.64,10.8411278 L27.62292,8.57470525 L29.64,8.57470525 L29.64,10.8411278 Z" id="Shape"></path>
                    <path d="M22.9844094,24.6208781 C19.8572014,24.6208781 17.3118373,21.8938107 17.3118373,18.5433639 C17.3118373,18.2334107 17.3393898,17.9026203 17.3969259,17.5318919 L17.7364698,15.3491961 L16.1019587,16.7027454 C14.2956496,18.1986821 13.26,20.4508352 13.26,22.8844455 C13.26,27.193403 16.5314534,30.6983923 20.5533071,30.6983923 C24.1262172,30.6983923 27.1488878,27.9583016 27.7388353,24.1815607 L28.08,21.9971284 L26.4438681,23.3515459 C25.4406332,24.1815607 24.2445308,24.6208781 22.9844094,24.6208781 Z M20.5533071,28.9619597 C17.4260991,28.9619597 14.8807349,26.2348922 14.8807349,22.8844455 C14.8807349,21.7114853 15.1911056,20.5914862 15.7616043,19.6329754 C16.2583596,23.4279489 19.3077723,26.3573107 22.9844094,26.3573107 C23.8498819,26.3573107 24.692664,26.1966907 25.4868241,25.8832646 C24.5079003,27.7455886 22.6529692,28.9619597 20.5533071,28.9619597 Z" id="Shape"></path>
                    <polygon id="Rectangle-path" points="21.06 15.3491961 22.62 15.3491961 22.62 17.0546624 21.06 17.0546624"></polygon>
                    <polygon id="Rectangle-path" points="18.72 17.0546624 20.28 17.0546624 20.28 18.7601286 18.72 18.7601286"></polygon>
                    <polygon id="Rectangle-path" points="21.06 17.9073955 22.62 17.9073955 22.62 19.6128617 21.06 19.6128617"></polygon>
                    <polygon id="Rectangle-path" points="22.62 17.0546624 24.18 17.0546624 24.18 18.7601286 22.62 18.7601286"></polygon>
                    <polygon id="Rectangle-path" points="4.68 48.6057878 22.62 48.6057878 22.62 50.311254 4.68 50.311254"></polygon>
                    <polygon id="Rectangle-path" points="25.74 48.6057878 27.3 48.6057878 27.3 50.311254 25.74 50.311254"></polygon>
                </g>
            </g>
        </g>
    </g>
</svg>