<?xml version="1.0" encoding="UTF-8"?>
<svg width="134px" height="70px" viewBox="0 0 134 70" version="1.1" xmlns="http://www.w3.org/2000/svg" xmlns:xlink="http://www.w3.org/1999/xlink">
    <!-- Generator: Sketch 52.3 (67297) - http://www.bohemiancoding.com/sketch -->
    <title>Group 34</title>
    <desc>Created with Sketch.</desc>
    <g id="Page-1" stroke="none" stroke-width="1" fill="none" fill-rule="evenodd">
        <g id="Desktop-HD" transform="translate(-277.000000, -2440.000000)" fill="#020400" fill-rule="nonzero">
            <g id="Group-5" transform="translate(156.000000, 1673.000000)">
                <g id="Group-18" transform="translate(0.000000, 731.000000)">
                    <g id="Mosque-event" transform="translate(111.000000, 36.000000)">
                        <g id="Group-34" transform="translate(10.000000, 0.000000)">
                            <g id="mosque" transform="translate(0.000000, 26.000000)">
                                <path d="M16.9865121,0 C17.2619164,1.69555431 17.5642624,3.38236555 17.7970922,5.0770154 C17.8862327,5.72490769 17.9461032,6.33330538 18.5211926,6.81417471 C18.9675604,7.18741373 19.1804333,7.75601534 18.9449427,8.21849406 C18.5328341,9.02798256 18.9898456,9.42051665 19.5107189,9.98127963 C20.6565737,11.2143552 20.4992474,12.7507252 19.1864204,13.9241067 C18.8198799,14.2515199 18.5474691,14.4710013 18.9086878,14.9280533 C18.9994914,15.0429193 19.0257679,15.256974 18.9775388,15.3956573 C18.554454,16.6139601 19.5369954,16.9751397 20.4307289,17.4041535 C22.6748748,18.4807581 24.9040531,19.5733415 26.8757882,21.0524293 C29.5852609,23.0847428 31.4668577,25.6075733 32.5508463,28.6368994 C33.7575695,32.0096174 33.9571378,35.4540889 33.6255218,38.9639828 C33.4931414,40.3661918 33.2589813,41.7554368 33.1335858,43.1561384 C33.0836938,43.7150924 32.8475379,44.0012021 32.1417312,43.9999962 C21.9521048,43.983113 11.7624784,43.9870323 1.57285202,43.9933635 C1.10885565,43.993665 0.849749434,43.9647224 0.722025701,43.4271738 C0.0471521263,40.5907984 -0.0419883952,37.7254805 0.0138907377,34.8429779 C0.0774199899,31.5634189 0.917602666,28.4756046 2.64420135,25.5855649 C4.03918399,23.2508613 6.07212006,21.462751 8.43600695,19.9508013 C10.2810162,18.7707872 12.3518702,17.9395917 14.2653979,16.8644945 C14.6765087,16.6335566 15.1115676,16.4716589 14.7147593,15.9365222 C14.6625389,15.8659746 14.6389233,15.7266883 14.6801674,15.6576482 C15.3470583,14.5487846 14.4067588,13.8903403 13.8755744,13.0754251 C13.1444891,11.9535976 13.4671246,10.4051682 14.5680766,9.57909801 C14.9904962,9.26223677 15.1661163,9.05662368 14.8391569,8.59595387 C14.4726164,8.07981074 14.5657483,7.45362541 15.0074595,7.08581313 C15.953746,6.29773009 15.8699273,5.23831013 16.0661695,4.27054176 C16.3266062,2.9868166 16.4267229,1.67625924 16.5910342,0.376555359 C16.613652,0.20320121 16.6685332,0.0669297755 16.9865121,0 Z M20.4506857,28.0285017 C19.5928745,28.0794527 18.7167696,28.5126873 17.8932176,27.9278055 L17.8908893,27.9853892 L17.9271442,27.9383575 C18.0595245,28.7442282 18.0076367,29.5528122 17.9733775,30.3601903 C17.9194941,30.3701394 17.8380037,30.4934469 17.8253643,30.3309462 C17.8702672,30.3466235 17.9148375,30.3623007 17.9597404,30.377978 C18.693154,29.8015377 19.531341,30.2453244 20.3618778,30.25256 C20.049886,29.434027 19.9800371,28.7005128 20.4669838,28.0031769 L20.4244092,27.9847863 L20.4506857,28.0285017 Z M13.5293234,23.9385497 C9.65270854,25.8367023 8.00061537,29.3330293 9.19370138,33.0307487 C10.195867,36.137255 13.5682392,38.7267138 18.1420128,38.4149778 C20.7014766,38.2404177 24.3090068,36.0519346 24.581085,34.1730771 C21.0913001,35.3687685 17.9327986,34.8137338 15.3380777,32.4515951 C12.7436894,30.0894564 12.2510882,27.2054463 13.5293234,23.9385497 Z" id="XMLID_477_"></path>
                                <path d="M17.6813378,30.5807229 C17.5675067,30.5409948 17.4545188,30.5012666 17.3406876,30.4615385 C17.372729,30.8733361 17.5784682,30.5600948 17.7150656,30.5364108 C17.7142224,30.5379388 17.6813378,30.5807229 17.6813378,30.5807229 Z" id="XMLID_440_"></path>
                                <path d="M20.14446,28.0338574 L20.0786909,27.9230769 C20.0786909,27.9230769 20.1866197,27.9696811 20.1883061,27.9643331 C20.1908357,27.9582211 20.14446,28.0338574 20.14446,28.0338574 Z" id="XMLID_439_"></path>
                                <path d="M17.4325957,27.9505962 L17.3406876,28.0697807 C17.3406876,28.0697807 17.34659,27.9238561 17.342374,27.9230921 C17.338158,27.9223281 17.4325957,27.9505962 17.4325957,27.9505962 Z" id="XMLID_438_"></path>
                            </g>
                            <g id="mosque-copy-2" transform="translate(100.000000, 26.000000)">
                                <path d="M16.9865121,0 C17.2619164,1.69555431 17.5642624,3.38236555 17.7970922,5.0770154 C17.8862327,5.72490769 17.9461032,6.33330538 18.5211926,6.81417471 C18.9675604,7.18741373 19.1804333,7.75601534 18.9449427,8.21849406 C18.5328341,9.02798256 18.9898456,9.42051665 19.5107189,9.98127963 C20.6565737,11.2143552 20.4992474,12.7507252 19.1864204,13.9241067 C18.8198799,14.2515199 18.5474691,14.4710013 18.9086878,14.9280533 C18.9994914,15.0429193 19.0257679,15.256974 18.9775388,15.3956573 C18.554454,16.6139601 19.5369954,16.9751397 20.4307289,17.4041535 C22.6748748,18.4807581 24.9040531,19.5733415 26.8757882,21.0524293 C29.5852609,23.0847428 31.4668577,25.6075733 32.5508463,28.6368994 C33.7575695,32.0096174 33.9571378,35.4540889 33.6255218,38.9639828 C33.4931414,40.3661918 33.2589813,41.7554368 33.1335858,43.1561384 C33.0836938,43.7150924 32.8475379,44.0012021 32.1417312,43.9999962 C21.9521048,43.983113 11.7624784,43.9870323 1.57285202,43.9933635 C1.10885565,43.993665 0.849749434,43.9647224 0.722025701,43.4271738 C0.0471521263,40.5907984 -0.0419883952,37.7254805 0.0138907377,34.8429779 C0.0774199899,31.5634189 0.917602666,28.4756046 2.64420135,25.5855649 C4.03918399,23.2508613 6.07212006,21.462751 8.43600695,19.9508013 C10.2810162,18.7707872 12.3518702,17.9395917 14.2653979,16.8644945 C14.6765087,16.6335566 15.1115676,16.4716589 14.7147593,15.9365222 C14.6625389,15.8659746 14.6389233,15.7266883 14.6801674,15.6576482 C15.3470583,14.5487846 14.4067588,13.8903403 13.8755744,13.0754251 C13.1444891,11.9535976 13.4671246,10.4051682 14.5680766,9.57909801 C14.9904962,9.26223677 15.1661163,9.05662368 14.8391569,8.59595387 C14.4726164,8.07981074 14.5657483,7.45362541 15.0074595,7.08581313 C15.953746,6.29773009 15.8699273,5.23831013 16.0661695,4.27054176 C16.3266062,2.9868166 16.4267229,1.67625924 16.5910342,0.376555359 C16.613652,0.20320121 16.6685332,0.0669297755 16.9865121,0 Z M20.4506857,28.0285017 C19.5928745,28.0794527 18.7167696,28.5126873 17.8932176,27.9278055 L17.8908893,27.9853892 L17.9271442,27.9383575 C18.0595245,28.7442282 18.0076367,29.5528122 17.9733775,30.3601903 C17.9194941,30.3701394 17.8380037,30.4934469 17.8253643,30.3309462 C17.8702672,30.3466235 17.9148375,30.3623007 17.9597404,30.377978 C18.693154,29.8015377 19.531341,30.2453244 20.3618778,30.25256 C20.049886,29.434027 19.9800371,28.7005128 20.4669838,28.0031769 L20.4244092,27.9847863 L20.4506857,28.0285017 Z M13.5293234,23.9385497 C9.65270854,25.8367023 8.00061537,29.3330293 9.19370138,33.0307487 C10.195867,36.137255 13.5682392,38.7267138 18.1420128,38.4149778 C20.7014766,38.2404177 24.3090068,36.0519346 24.581085,34.1730771 C21.0913001,35.3687685 17.9327986,34.8137338 15.3380777,32.4515951 C12.7436894,30.0894564 12.2510882,27.2054463 13.5293234,23.9385497 Z" id="XMLID_477_"></path>
                                <path d="M17.8355928,30.1408544 C17.6997298,30.0939029 17.5648733,30.0469515 17.4290103,30 C17.4672532,30.4866699 17.7128129,30.1164757 17.8758485,30.0884854 C17.8748421,30.0902913 17.8355928,30.1408544 17.8355928,30.1408544 Z" id="XMLID_440_"></path>
                                <path d="M19.6861352,28.1309223 L19.6076366,28 C19.6076366,28 19.7364548,28.0550777 19.7384676,28.0487573 C19.7414868,28.041534 19.6861352,28.1309223 19.6861352,28.1309223 Z" id="XMLID_439_"></path>
                                <path d="M17.5387071,28.0325228 L17.4290103,28.1733772 C17.4290103,28.1733772 17.4360551,28.0009209 17.4310231,28.000018 C17.4259911,27.9991151 17.5387071,28.0325228 17.5387071,28.0325228 Z" id="XMLID_438_"></path>
                            </g>
                            <g id="mosque-copy" transform="translate(40.000000, 0.000000)">
                                <path d="M27.4781814,0 C27.9236883,2.69747277 28.4127775,5.3810361 28.7894138,8.07706996 C28.9336117,9.10780769 29.030461,10.0757131 29.9607527,10.8407325 C30.6828183,11.4345218 31.0271715,12.3391153 30.6462308,13.0748769 C29.9795845,14.3626995 30.7188678,14.9871856 31.561457,15.8793085 C33.4150458,17.8410197 33.1605472,20.2852446 31.0368565,22.1519879 C30.4439233,22.6728726 30.0032588,23.0220476 30.5875832,23.7491757 C30.7344713,23.931917 30.7769774,24.2724586 30.6989599,24.4930911 C30.0145579,26.4313001 31.6039631,27.005904 33.0497085,27.688426 C36.6799445,29.4012061 40.2859682,31.1394069 43.4755397,33.4925011 C47.8585103,36.7257272 50.9022697,40.7393212 52.6557808,45.5587035 C54.607833,50.9243913 54.9306641,56.4042324 54.3942264,61.9881545 C54.1800818,64.2189415 53.8012932,66.4291041 53.5984477,68.6574928 C53.5177399,69.546738 53.1357231,70.0019125 51.993977,69.999994 C35.5107578,69.9731343 19.0275386,69.9793696 2.54431945,69.989442 C1.79373708,69.9899216 1.37459467,69.9438766 1.16798275,69.0886856 C0.0762754984,64.5762703 -0.067922404,60.0178099 0.022470311,55.4320102 C0.125238219,50.21453 1.48435725,45.3020983 4.27738454,40.7043077 C6.5339741,36.9900067 9.82254716,34.1452857 13.6464818,31.7399112 C16.6310556,29.862616 19.9809665,28.5402596 23.076379,26.8298776 C23.7414111,26.4624765 24.445183,26.204912 23.8032871,25.3535581 C23.7188129,25.2413233 23.6806112,25.0197314 23.7473297,24.9098948 C24.8261237,23.1457937 23.305051,22.0982687 22.4457822,20.8018126 C21.2631442,19.0170871 21.7850545,16.5536767 23.5660062,15.2394741 C24.2493321,14.7353767 24.5334235,14.4082649 24.0045185,13.6753812 C23.4115853,12.8542444 23.5622398,11.8580404 24.2767727,11.2728845 C25.8075303,10.0191161 25.6719412,8.33367521 25.9893918,6.7940437 C26.4106865,4.75175369 26.5726401,2.66677607 26.8384377,0.599065343 C26.8750252,0.323274653 26.9638038,0.106479188 27.4781814,0 Z M33.0819916,44.5907981 C31.6943559,44.6718566 30.2771272,45.3610935 28.9449108,44.4305997 L28.9411444,44.5222102 L28.9997921,44.4473869 C29.2139367,45.7294539 29.1300006,47.0158376 29.0745813,48.3003028 C28.9874169,48.3161308 28.8555942,48.5123019 28.8351482,48.2537781 C28.9077852,48.2787192 28.9798842,48.3036603 29.0525212,48.3286013 C30.2389255,47.4115373 31.5948163,48.1175615 32.9383318,48.1290728 C32.4336391,46.8268611 32.3206482,45.6599067 33.1083562,44.5505087 L33.0394855,44.5212509 L33.0819916,44.5907981 Z M21.8856702,38.0840564 C15.6146756,41.1038445 12.9421719,46.666183 14.872164,52.5489183 C16.4933143,57.4910875 21.9486223,61.610681 29.3473736,61.1147374 C33.4876828,60.8370281 39.3233934,57.3553505 39.7635198,54.3662591 C34.1182796,56.2684954 29.008939,55.3854855 24.8115963,51.6275376 C20.6147917,47.8695897 19.8179368,43.2813919 21.8856702,38.0840564 Z" id="XMLID_477_"></path>
                                <path d="M28.8132205,49.1408544 C28.6769579,49.0939029 28.5417047,49.0469515 28.4054422,49 C28.4437976,49.4866699 28.6900795,49.1164757 28.8535946,49.0884854 C28.8525852,49.0902913 28.8132205,49.1408544 28.8132205,49.1408544 Z" id="XMLID_440_"></path>
                                <path d="M32.8542397,44.1309223 L32.7755102,44 C32.7755102,44 32.9047073,44.0550777 32.906726,44.0487573 C32.9097541,44.041534 32.8542397,44.1309223 32.8542397,44.1309223 Z" id="XMLID_439_"></path>
                                <path d="M28.5154616,44.0325228 L28.4054422,44.1733772 C28.4054422,44.1733772 28.4125076,44.0009209 28.4074609,44.000018 C28.4024141,43.9991151 28.5154616,44.0325228 28.5154616,44.0325228 Z" id="XMLID_438_"></path>
                            </g>
                        </g>
                    </g>
                </g>
            </g>
        </g>
    </g>
</svg>