<?xml version="1.0" encoding="UTF-8"?>
<svg width="36px" height="38px" viewBox="0 0 36 38" version="1.1" xmlns="http://www.w3.org/2000/svg" xmlns:xlink="http://www.w3.org/1999/xlink">
    <!-- Generator: Sketch 52.3 (67297) - http://www.bohemiancoding.com/sketch -->
    <title>paper-plane</title>
    <desc>Created with Sketch.</desc>
    <g id="Page-1" stroke="none" stroke-width="1" fill="none" fill-rule="evenodd">
        <g id="Desktop-HD" transform="translate(-1007.000000, -2460.000000)" fill="#ACD03E" fill-rule="nonzero">
            <g id="Group-5" transform="translate(156.000000, 1673.000000)">
                <g id="Group-18" transform="translate(0.000000, 731.000000)">
                    <g id="Subscribe-section" transform="translate(842.000000, 56.000000)">
                        <g id="Subscription-Section">
                            <g id="Group-8" transform="translate(9.907975, 0.000000)">
                                <g id="paper-plane" transform="translate(-0.000000, 0.000000)">
                                    <path d="M34.3810477,0.316861821 C34.0927045,0.00155693011 33.6490997,-0.0873752186 33.2794291,0.0904890788 L0.600542211,15.750632 C0.253051785,15.9204115 0.0238559718,16.2842249 0.00167573187,16.6965467 C-0.0205045081,17.1088684 0.179117651,17.496936 0.504427837,17.6990545 L11.8976778,24.765118 L18.6626509,37.3530594 C18.8400929,37.6845337 19.1727965,37.894737 19.5202869,37.894737 C19.5424671,37.894737 19.557254,37.894737 19.5794342,37.894737 C19.9564983,37.8704828 20.2818085,37.6198558 20.4370701,37.239873 L34.5954566,1.5214882 C34.7581117,1.10916642 34.6767842,0.632166712 34.3810477,0.316861821 Z M29.1834781,4.43199488 L12.4595772,22.5984074 L3.22520394,16.874411 L29.1834781,4.43199488 Z M19.3872055,34.3940442 L13.8791125,24.1345082 L30.6991278,5.862994 L19.3872055,34.3940442 Z" id="Shape"></path>
                                </g>
                            </g>
                        </g>
                    </g>
                </g>
            </g>
        </g>
    </g>
</svg>