<?xml version="1.0" encoding="UTF-8"?>
<svg width="16px" height="25px" viewBox="0 0 16 25" version="1.1" xmlns="http://www.w3.org/2000/svg" xmlns:xlink="http://www.w3.org/1999/xlink">
    <!-- Generator: Sketch 52.3 (67297) - http://www.bohemiancoding.com/sketch -->
    <title>white-mobile</title>
    <desc>Created with Sketch.</desc>
    <g id="Page-1" stroke="none" stroke-width="1" fill="none" fill-rule="evenodd" opacity="0.842238653">
        <g id="Desktop-HD" transform="translate(-594.000000, -129.000000)" fill="#8E9396" fill-rule="nonzero">
            <g id="Group-32" transform="translate(140.000000, 107.000000)">
                <g id="Group-20">
                    <g id="Group-35" transform="translate(454.000000, 0.000000)">
                        <g id="Group-15">
                            <g id="Group-26" transform="translate(0.000000, 22.000000)">
                                <g id="Group-25">
                                    <g id="white-mobile">
                                        <path d="M13.8181818,0 L2.18181818,0 C0.978909091,0 0,0.978909091 0,2.18181818 L0,22.5454545 C0,23.7483636 0.978909091,24.7272727 2.18181818,24.7272727 L13.8181818,24.7272727 C15.0210909,24.7272727 16,23.7483636 16,22.5454545 L16,2.18181818 C16,0.978909091 15.0210909,0 13.8181818,0 Z M2.18181818,1.45454545 L13.8181818,1.45454545 C14.2196364,1.45454545 14.5454545,1.78036364 14.5454545,2.18181818 L14.5454545,4.36363636 L1.45454545,4.36363636 L1.45454545,2.18181818 C1.45454545,1.78036364 1.78036364,1.45454545 2.18181818,1.45454545 Z M14.5454545,5.81818182 L14.5454545,17.4545455 L1.45454545,17.4545455 L1.45454545,5.81818182 L14.5454545,5.81818182 Z M13.8181818,23.2727273 L2.18181818,23.2727273 C1.78036364,23.2727273 1.45454545,22.9469091 1.45454545,22.5454545 L1.45454545,18.9090909 L14.5454545,18.9090909 L14.5454545,22.5454545 C14.5454545,22.9469091 14.2196364,23.2727273 13.8181818,23.2727273 Z M8.72727273,21.0909091 C8.72727273,21.4923636 8.40145455,21.8181818 8,21.8181818 C7.59854545,21.8181818 7.27272727,21.4923636 7.27272727,21.0909091 C7.27272727,20.6894545 7.59854545,20.3636364 8,20.3636364 C8.40145455,20.3636364 8.72727273,20.6894545 8.72727273,21.0909091 Z" id="Shape"></path>
                                    </g>
                                </g>
                            </g>
                        </g>
                    </g>
                </g>
            </g>
        </g>
    </g>
</svg>