<?xml version="1.0" encoding="UTF-8"?>
<svg width="23px" height="19px" viewBox="0 0 23 19" version="1.1" xmlns="http://www.w3.org/2000/svg" xmlns:xlink="http://www.w3.org/1999/xlink">
    <!-- Generator: Sketch 52.3 (67297) - http://www.bohemiancoding.com/sketch -->
    <title>Shape</title>
    <desc>Created with Sketch.</desc>
    <g id="Page-1" stroke="none" stroke-width="1" fill="none" fill-rule="evenodd" opacity="0.842238653">
        <g id="Desktop-HD" transform="translate(-1262.000000, -130.000000)" fill="#B3B7BB">
            <g id="Group-32" transform="translate(140.000000, 107.000000)">
                <g id="Group-20">
                    <g id="Group-35" transform="translate(454.000000, 0.000000)">
                        <g id="Group-15">
                            <g id="Group-17" transform="translate(514.000000, 0.000000)">
                                <g id="Line-Group-Copy-3" transform="translate(141.000000, 1.000000)">
                                    <path d="M33.6358423,26.6554518 C33.650442,26.8597573 33.650442,27.0641077 33.650442,27.2684132 C33.650442,33.5 28.9074371,40.6802508 20.2386045,40.6802508 C17.5678987,40.6802508 15.0869437,39.9067379 13,38.5641526 C13.3794566,38.6079067 13.7442685,38.6225064 14.1383248,38.6225064 C16.3419759,38.6225064 18.3705659,37.8782378 19.9905,36.608561 C17.9181559,36.564762 16.1814695,35.2075321 15.5831078,33.3394935 C15.8750112,33.3832476 16.1668698,33.4124469 16.4733729,33.4124469 C16.8965836,33.4124469 17.3198391,33.3540483 17.7138504,33.2519404 C15.5539533,32.8140852 13.9339744,30.9168922 13.9339744,28.6256431 L13.9339744,28.5672893 C14.5614905,28.9175466 15.2912492,29.1364517 16.0646721,29.1656061 C14.7949953,28.3191399 13.9631737,26.8743569 13.9631737,25.2398232 C13.9631737,24.3642026 14.1966336,23.5615354 14.6052895,22.8610209 C16.925738,25.7214325 20.4137106,27.5894261 24.3248489,27.7937765 C24.2518955,27.4435193 24.2080965,27.0787073 24.2080965,26.7138504 C24.2080965,24.1160981 26.3096399,22 28.921947,22 C30.2791768,22 31.5050547,22.5691624 32.3661206,23.488582 C33.431447,23.2842765 34.4530194,22.8902203 35.3578842,22.3502572 C35.0075821,23.4448279 34.2633136,24.3642475 33.2855401,24.9479646 C34.2341591,24.8458568 35.1535787,24.5831078 36,24.2182958 C35.357974,25.1522701 34.5552619,25.9840917 33.6358423,26.6554518 Z" id="Shape"></path>
                                </g>
                            </g>
                        </g>
                    </g>
                </g>
            </g>
        </g>
    </g>
</svg>