<?xml version="1.0" encoding="UTF-8"?>
<svg width="23px" height="16px" viewBox="0 0 23 16" version="1.1" xmlns="http://www.w3.org/2000/svg" xmlns:xlink="http://www.w3.org/1999/xlink">
    <!-- Generator: Sketch 52.3 (67297) - http://www.bohemiancoding.com/sketch -->
    <title>Shape-path</title>
    <desc>Created with Sketch.</desc>
    <g id="Page-1" stroke="none" stroke-width="1" fill="none" fill-rule="evenodd" opacity="0.842238653">
        <g id="Desktop-HD" transform="translate(-1215.000000, -132.000000)" fill="#B3B7BB" fill-rule="nonzero">
            <g id="Group-32" transform="translate(140.000000, 107.000000)">
                <g id="Group-20">
                    <g id="Group-35" transform="translate(454.000000, 0.000000)">
                        <g id="Group-15">
                            <g id="Group-17" transform="translate(514.000000, 0.000000)">
                                <g id="Line-Group-Copy-2" transform="translate(94.000000, 1.000000)">
                                    <path d="M35.4593409,26.4471305 C35.1955271,25.4838857 34.4182398,24.7252643 33.4313211,24.4678152 C31.6424601,24 24.4693334,24 24.4693334,24 C24.4693334,24 17.2962485,24 15.5073455,24.4678152 C14.5204268,24.725305 13.7431396,25.4838857 13.4793257,26.4471305 C13,28.1930677 13,31.8358029 13,31.8358029 C13,31.8358029 13,35.4785381 13.4793257,37.2244753 C13.7431396,38.1877201 14.5204268,38.9147358 15.5073455,39.1721848 C17.2962485,39.64 24.4693334,39.64 24.4693334,39.64 C24.4693334,39.64 31.6424181,39.64 33.4313211,39.1721848 C34.4182398,38.9147358 35.1955271,38.1877201 35.4593409,37.2244753 C35.9386666,35.4785381 35.9386666,31.8358029 35.9386666,31.8358029 C35.9386666,31.8358029 35.9386666,28.1930677 35.4593409,26.4471305 Z M22.1233171,35.1431334 L22.1233171,28.5284724 L28.1186265,31.8358844 L22.1233171,35.1431334 Z" id="Shape"></path>
                                </g>
                            </g>
                        </g>
                    </g>
                </g>
            </g>
        </g>
    </g>
</svg>